<svg width="733" height="466" viewBox="0 0 733 466" fill="none" xmlns="http://www.w3.org/2000/svg">
<path d="M0 466C10.6163 205.62 224.791 0 485.387 0H733V466H0Z" fill="#440D7B"/>
<g clip-path="url(#clip0)">
<path d="M412.17 374.534C328.012 367.371 227.65 294.44 232.76 219.345C237.869 144.251 335.071 74.3438 419.229 81.5067C503.387 88.6696 551.831 229.009 546.721 304.103C541.611 379.198 496.328 381.697 412.17 374.534Z" fill="#F2F2F2"/>
<path d="M419.228 386.595C516.252 386.595 594.905 381.206 594.905 374.558C594.905 367.91 516.252 362.52 419.228 362.52C322.204 362.52 243.551 367.91 243.551 374.558C243.551 381.206 322.204 386.595 419.228 386.595Z" fill="#3F3D56"/>
<path opacity="0.1" d="M419.228 382.324C501.871 382.324 568.866 378.76 568.866 374.364C568.866 369.967 501.871 366.404 419.228 366.404C336.585 366.404 269.59 369.967 269.59 374.364C269.59 378.76 336.585 382.324 419.228 382.324Z" fill="black"/>
<path d="M296.671 413C337.358 413 370.342 409.784 370.342 405.816C370.342 401.849 337.358 398.633 296.671 398.633C255.984 398.633 223 401.849 223 405.816C223 409.784 255.984 413 296.671 413Z" fill="#3F3D56"/>
<path opacity="0.1" d="M296.671 410.451C331.328 410.451 359.422 408.324 359.422 405.701C359.422 403.077 331.328 400.95 296.671 400.95C262.014 400.95 233.92 403.077 233.92 405.701C233.92 408.324 262.014 410.451 296.671 410.451Z" fill="black"/>
<path d="M552.201 143.905H291.116V373.005H552.201V143.905Z" fill="#3F3D56"/>
<path d="M418.688 175.214H354.279C354.176 175.214 354.074 175.192 353.979 175.148C353.884 175.104 353.798 175.04 353.725 174.958C353.652 174.877 353.594 174.781 353.555 174.675C353.516 174.568 353.495 174.455 353.495 174.34C353.495 174.225 353.516 174.111 353.555 174.005C353.594 173.898 353.652 173.802 353.725 173.721C353.798 173.64 353.884 173.575 353.979 173.531C354.074 173.488 354.176 173.465 354.279 173.465H418.688C418.895 173.466 419.093 173.558 419.24 173.722C419.386 173.886 419.468 174.108 419.468 174.34C419.468 174.571 419.386 174.793 419.24 174.957C419.093 175.121 418.895 175.213 418.688 175.214Z" fill="#F2F2F2"/>
<path d="M489.194 184.831H387.89C387.683 184.831 387.484 184.738 387.338 184.574C387.191 184.41 387.109 184.188 387.109 183.956C387.109 183.724 387.191 183.502 387.338 183.338C387.484 183.174 387.683 183.082 387.89 183.082H489.194C489.297 183.082 489.399 183.105 489.494 183.149C489.588 183.193 489.675 183.257 489.747 183.338C489.82 183.419 489.877 183.516 489.917 183.622C489.956 183.728 489.976 183.841 489.976 183.956C489.976 184.071 489.956 184.185 489.917 184.291C489.877 184.397 489.82 184.493 489.747 184.574C489.675 184.656 489.588 184.72 489.494 184.764C489.399 184.808 489.297 184.831 489.194 184.831Z" fill="#F2F2F2"/>
<path d="M419.001 194.447H354.591C354.384 194.447 354.185 194.355 354.039 194.191C353.892 194.027 353.81 193.805 353.81 193.573C353.81 193.341 353.892 193.119 354.039 192.955C354.185 192.791 354.384 192.699 354.591 192.699H419.001C419.208 192.699 419.407 192.791 419.553 192.955C419.7 193.119 419.782 193.341 419.782 193.573C419.782 193.805 419.7 194.027 419.553 194.191C419.407 194.355 419.208 194.447 419.001 194.447Z" fill="#F2F2F2"/>
<path d="M489.194 194.622H424.785C424.578 194.622 424.379 194.53 424.232 194.366C424.086 194.202 424.003 193.98 424.003 193.748C424.003 193.516 424.086 193.294 424.232 193.13C424.379 192.966 424.578 192.874 424.785 192.874H489.194C489.402 192.874 489.6 192.966 489.747 193.13C489.894 193.294 489.976 193.516 489.976 193.748C489.976 193.98 489.894 194.202 489.747 194.366C489.6 194.53 489.402 194.622 489.194 194.622Z" fill="#F2F2F2"/>
<path d="M419.157 204.064H354.747C354.54 204.064 354.341 203.972 354.195 203.808C354.048 203.644 353.966 203.421 353.966 203.19C353.966 202.958 354.048 202.735 354.195 202.571C354.341 202.407 354.54 202.315 354.747 202.315H419.157C419.364 202.315 419.563 202.407 419.71 202.571C419.856 202.735 419.939 202.958 419.939 203.19C419.939 203.421 419.856 203.644 419.71 203.808C419.563 203.972 419.364 204.064 419.157 204.064Z" fill="#F2F2F2"/>
<path d="M419.313 213.68H354.904C354.697 213.68 354.498 213.588 354.351 213.424C354.205 213.26 354.122 213.038 354.122 212.806C354.122 212.574 354.205 212.352 354.351 212.188C354.498 212.024 354.697 211.932 354.904 211.932H419.313C419.521 211.932 419.719 212.024 419.866 212.188C420.013 212.352 420.095 212.574 420.095 212.806C420.095 213.038 420.013 213.26 419.866 213.424C419.719 213.588 419.521 213.68 419.313 213.68Z" fill="#F2F2F2"/>
<path d="M448.548 175.389H430.1C429.893 175.389 429.694 175.297 429.548 175.133C429.401 174.969 429.319 174.746 429.319 174.514C429.319 174.283 429.401 174.06 429.548 173.896C429.694 173.732 429.893 173.64 430.1 173.64H448.548C448.755 173.64 448.954 173.732 449.1 173.896C449.247 174.06 449.329 174.283 449.329 174.514C449.329 174.746 449.247 174.969 449.1 175.133C448.954 175.297 448.755 175.389 448.548 175.389Z" fill="#F2F2F2"/>
<path d="M448.548 204.064H430.1C429.893 204.064 429.694 203.972 429.548 203.808C429.401 203.644 429.319 203.421 429.319 203.19C429.319 202.958 429.401 202.735 429.548 202.571C429.694 202.407 429.893 202.315 430.1 202.315H448.548C448.755 202.315 448.954 202.407 449.1 202.571C449.247 202.735 449.329 202.958 449.329 203.19C449.329 203.421 449.247 203.644 449.1 203.808C448.954 203.972 448.755 204.064 448.548 204.064Z" fill="#F2F2F2"/>
<path d="M448.548 213.506H430.1C429.997 213.506 429.896 213.483 429.801 213.44C429.706 213.396 429.619 213.331 429.546 213.25C429.474 213.169 429.416 213.072 429.377 212.966C429.337 212.86 429.317 212.746 429.317 212.631C429.317 212.516 429.337 212.403 429.377 212.296C429.416 212.19 429.474 212.094 429.546 212.012C429.619 211.931 429.706 211.867 429.801 211.823C429.896 211.779 429.997 211.757 430.1 211.757H448.548C448.65 211.757 448.752 211.779 448.847 211.823C448.942 211.867 449.029 211.931 449.101 212.012C449.174 212.094 449.232 212.19 449.271 212.296C449.311 212.403 449.331 212.516 449.331 212.631C449.331 212.746 449.311 212.86 449.271 212.966C449.232 213.072 449.174 213.169 449.101 213.25C449.029 213.331 448.942 213.396 448.847 213.44C448.752 213.483 448.65 213.506 448.548 213.506Z" fill="#F2F2F2"/>
<path d="M479.502 213.506H461.054C460.847 213.505 460.649 213.413 460.503 213.249C460.356 213.085 460.274 212.863 460.274 212.631C460.274 212.4 460.356 212.178 460.503 212.014C460.649 211.85 460.847 211.758 461.054 211.757H479.502C479.604 211.757 479.706 211.779 479.801 211.823C479.896 211.867 479.983 211.931 480.055 212.012C480.128 212.094 480.186 212.19 480.225 212.296C480.265 212.403 480.285 212.516 480.285 212.631C480.285 212.746 480.265 212.86 480.225 212.966C480.186 213.072 480.128 213.169 480.055 213.25C479.983 213.331 479.896 213.396 479.801 213.44C479.706 213.483 479.604 213.506 479.502 213.506Z" fill="#F2F2F2"/>
<path d="M372.57 184.831H354.122C353.915 184.831 353.716 184.738 353.57 184.574C353.423 184.41 353.341 184.188 353.341 183.956C353.341 183.724 353.423 183.502 353.57 183.338C353.716 183.174 353.915 183.082 354.122 183.082H372.57C372.777 183.082 372.976 183.174 373.122 183.338C373.269 183.502 373.351 183.724 373.351 183.956C373.351 184.188 373.269 184.41 373.122 184.574C372.976 184.738 372.777 184.831 372.57 184.831Z" fill="#F2F2F2"/>
<path d="M418.766 316.841H354.357C354.149 316.841 353.95 316.749 353.804 316.585C353.657 316.421 353.575 316.198 353.575 315.966C353.575 315.734 353.657 315.512 353.804 315.348C353.95 315.184 354.149 315.092 354.357 315.092H418.766C418.973 315.092 419.172 315.184 419.319 315.348C419.465 315.512 419.548 315.734 419.548 315.966C419.548 316.198 419.465 316.421 419.319 316.585C419.172 316.749 418.973 316.841 418.766 316.841Z" fill="#F2F2F2"/>
<path d="M418.453 336.074H354.044C353.837 336.074 353.638 335.982 353.491 335.818C353.345 335.654 353.262 335.431 353.262 335.2C353.262 334.968 353.345 334.745 353.491 334.581C353.638 334.417 353.837 334.325 354.044 334.325H418.453C418.661 334.325 418.86 334.417 419.006 334.581C419.153 334.745 419.235 334.968 419.235 335.2C419.235 335.431 419.153 335.654 419.006 335.818C418.86 335.982 418.661 336.074 418.453 336.074Z" fill="#F2F2F2"/>
<path d="M418.61 345.69H354.2C354.098 345.691 353.996 345.668 353.901 345.624C353.806 345.581 353.719 345.516 353.647 345.435C353.574 345.354 353.516 345.257 353.477 345.151C353.437 345.045 353.417 344.931 353.417 344.816C353.417 344.701 353.437 344.587 353.477 344.481C353.516 344.375 353.574 344.279 353.647 344.197C353.719 344.116 353.806 344.052 353.901 344.008C353.996 343.964 354.098 343.942 354.2 343.942H418.61C418.713 343.942 418.814 343.964 418.909 344.008C419.004 344.052 419.091 344.116 419.163 344.197C419.236 344.279 419.294 344.375 419.333 344.481C419.373 344.587 419.393 344.701 419.393 344.816C419.393 344.931 419.373 345.045 419.333 345.151C419.294 345.257 419.236 345.354 419.163 345.435C419.091 345.516 419.004 345.581 418.909 345.624C418.814 345.668 418.713 345.691 418.61 345.69Z" fill="#F2F2F2"/>
<path d="M446.125 336.249H427.677C427.47 336.249 427.271 336.157 427.124 335.993C426.978 335.829 426.896 335.606 426.896 335.374C426.896 335.143 426.978 334.92 427.124 334.756C427.271 334.592 427.47 334.5 427.677 334.5H446.125C446.332 334.5 446.531 334.592 446.677 334.756C446.824 334.92 446.906 335.143 446.906 335.374C446.906 335.606 446.824 335.829 446.677 335.993C446.531 336.157 446.332 336.249 446.125 336.249Z" fill="#F2F2F2"/>
<path d="M446.125 345.69H427.677C427.47 345.69 427.271 345.598 427.124 345.434C426.978 345.27 426.896 345.048 426.896 344.816C426.896 344.584 426.978 344.362 427.124 344.198C427.271 344.034 427.47 343.942 427.677 343.942H446.125C446.332 343.942 446.531 344.034 446.677 344.198C446.824 344.362 446.906 344.584 446.906 344.816C446.906 345.048 446.824 345.27 446.677 345.434C446.531 345.598 446.332 345.69 446.125 345.69Z" fill="#F2F2F2"/>
<path d="M477.078 336.249H458.631C458.424 336.249 458.225 336.157 458.078 335.993C457.932 335.829 457.849 335.606 457.849 335.374C457.849 335.143 457.932 334.92 458.078 334.756C458.225 334.592 458.424 334.5 458.631 334.5H477.078C477.286 334.5 477.485 334.592 477.631 334.756C477.778 334.92 477.86 335.143 477.86 335.374C477.86 335.606 477.778 335.829 477.631 335.993C477.485 336.157 477.286 336.249 477.078 336.249Z" fill="#F2F2F2"/>
<path d="M489.272 326.457H387.968C387.761 326.457 387.562 326.365 387.416 326.201C387.269 326.037 387.187 325.815 387.187 325.583C387.187 325.351 387.269 325.129 387.416 324.965C387.562 324.801 387.761 324.709 387.968 324.709H489.272C489.48 324.709 489.679 324.801 489.825 324.965C489.972 325.129 490.054 325.351 490.054 325.583C490.054 325.815 489.972 326.037 489.825 326.201C489.679 326.365 489.48 326.457 489.272 326.457Z" fill="#F2F2F2"/>
<path d="M372.648 326.457H354.2C353.993 326.457 353.794 326.365 353.648 326.201C353.501 326.037 353.419 325.815 353.419 325.583C353.419 325.351 353.501 325.129 353.648 324.965C353.794 324.801 353.993 324.709 354.2 324.709H372.648C372.855 324.709 373.054 324.801 373.2 324.965C373.347 325.129 373.429 325.351 373.429 325.583C373.429 325.815 373.347 326.037 373.2 326.201C373.054 326.365 372.855 326.457 372.648 326.457Z" fill="#F2F2F2"/>
<path d="M489.272 355.482H387.968C387.866 355.482 387.764 355.46 387.669 355.416C387.574 355.372 387.487 355.308 387.415 355.227C387.342 355.145 387.284 355.049 387.245 354.943C387.205 354.837 387.185 354.723 387.185 354.608C387.185 354.493 387.205 354.379 387.245 354.273C387.284 354.167 387.342 354.07 387.415 353.989C387.487 353.908 387.574 353.843 387.669 353.799C387.764 353.756 387.866 353.733 387.968 353.733H489.272C489.48 353.733 489.679 353.826 489.825 353.99C489.972 354.153 490.054 354.376 490.054 354.608C490.054 354.84 489.972 355.062 489.825 355.226C489.679 355.39 489.48 355.482 489.272 355.482Z" fill="#F2F2F2"/>
<path d="M372.648 355.482H354.2C354.098 355.482 353.996 355.46 353.901 355.416C353.806 355.372 353.719 355.308 353.647 355.227C353.574 355.145 353.516 355.049 353.477 354.943C353.437 354.837 353.417 354.723 353.417 354.608C353.417 354.493 353.437 354.379 353.477 354.273C353.516 354.167 353.574 354.07 353.647 353.989C353.719 353.908 353.806 353.843 353.901 353.799C353.996 353.756 354.098 353.733 354.2 353.733H372.648C372.75 353.733 372.852 353.756 372.947 353.799C373.042 353.843 373.129 353.908 373.201 353.989C373.274 354.07 373.332 354.167 373.371 354.273C373.411 354.379 373.431 354.493 373.431 354.608C373.431 354.723 373.411 354.837 373.371 354.943C373.332 355.049 373.274 355.145 373.201 355.227C373.129 355.308 373.042 355.372 372.947 355.416C372.852 355.46 372.75 355.482 372.648 355.482Z" fill="#F2F2F2"/>
<path d="M403.211 236.76L378.198 264.386L403.211 292.012L408.839 285.718L389.923 264.561L408.995 243.23L403.211 236.76Z" fill="#839AFF"/>
<path d="M440.105 236.76L465.119 264.386L440.105 292.012L434.478 285.718L453.394 264.561L434.321 243.23L440.105 236.76Z" fill="#839AFF"/>
<path d="M298.06 153.225C299.785 153.225 301.184 151.66 301.184 149.73C301.184 147.8 299.785 146.235 298.06 146.235C296.334 146.235 294.935 147.8 294.935 149.73C294.935 151.66 296.334 153.225 298.06 153.225Z" fill="#FF4B12"/>
<path d="M306.392 153.225C308.118 153.225 309.517 151.66 309.517 149.73C309.517 147.8 308.118 146.235 306.392 146.235C304.666 146.235 303.267 147.8 303.267 149.73C303.267 151.66 304.666 153.225 306.392 153.225Z" fill="#FF4B12"/>
<path d="M314.725 153.225C316.45 153.225 317.849 151.66 317.849 149.73C317.849 147.8 316.45 146.235 314.725 146.235C312.999 146.235 311.6 147.8 311.6 149.73C311.6 151.66 312.999 153.225 314.725 153.225Z" fill="#FF4B12"/>
<path opacity="0.1" d="M552.201 155.554H291.116V156.719H552.201V155.554Z" fill="black"/>
<path d="M614 316.877C614 341.639 600.838 350.285 584.601 350.285C568.365 350.285 555.203 341.639 555.203 316.877C555.203 292.114 584.601 260.612 584.601 260.612C584.601 260.612 614 292.114 614 316.877Z" fill="#F2F2F2"/>
<path d="M583.531 346.497L583.832 325.773L596.362 300.135L583.879 322.522L584.014 313.204L592.65 294.655L584.05 310.738L584.293 293.979L593.541 279.211L584.332 291.343L584.484 260.612L583.528 301.295L583.606 299.616L574.205 283.521L583.456 302.838L582.58 321.556L582.554 321.059L571.715 304.12L582.521 322.814L582.411 325.154L582.392 325.19L582.401 325.382L580.178 372.87H583.147L583.504 348.342L594.283 329.694L583.531 346.497Z" fill="#3F3D56"/>
<path d="M265.573 372.652C264.671 373.213 263.719 373.669 262.733 374.012C260.97 374.551 259.085 374.353 257.304 374.813C256.575 375.001 255.781 375.395 255.55 376.191C255.379 376.775 255.564 377.405 255.742 377.986C257.71 384.44 258.896 391.292 262.034 397.137C263.354 399.593 264.991 401.816 266.893 403.734C267.606 404.453 268.415 405.157 269.37 405.269C269.81 405.321 270.255 405.243 270.659 405.041C271.063 404.839 271.413 404.522 271.673 404.121C271.932 403.72 272.092 403.249 272.137 402.757C272.182 402.264 272.111 401.767 271.929 401.316C271.647 400.616 271.124 400.075 270.787 399.407C270.421 398.556 270.207 397.635 270.155 396.692C269.845 393.932 269.546 391.047 270.402 388.435C270.975 386.683 272.027 385.189 272.904 383.602C273.78 382.014 274.508 380.196 274.313 378.343C274.18 377.078 273.628 375.921 273.046 374.827C272.462 373.731 271.308 370.785 270.135 370.419C268.918 370.04 266.634 372.043 265.573 372.652Z" fill="#2F2E41"/>
<path d="M297.665 394.944C297.683 395.568 297.605 396.192 297.435 396.787C297.067 397.871 296.157 398.614 295.686 399.647C295.032 401.084 295.328 402.821 295.762 404.359C296.034 405.323 296.39 406.327 297.12 406.923C297.744 407.356 298.454 407.61 299.187 407.663C305.449 408.633 311.81 408.077 318.129 408.28C319.281 408.317 320.5 408.362 321.506 407.732C322.511 407.103 323.133 405.52 322.449 404.483C321.835 403.552 320.621 403.56 319.587 403.505C316.896 403.352 314.333 402.172 312.327 400.16C311.931 399.782 311.588 399.34 311.308 398.849C311.093 398.413 310.915 397.956 310.776 397.483C309.89 394.8 308.836 392.189 307.622 389.671C307.282 388.966 306.897 388.232 306.266 387.855C305.803 387.62 305.302 387.498 304.794 387.496C303.219 387.382 299.141 386.782 297.923 388.152C296.797 389.418 297.69 393.336 297.665 394.944Z" fill="#2F2E41"/>
<path d="M307.356 238.533C312.912 238.533 317.416 233.496 317.416 227.282C317.416 221.068 312.912 216.031 307.356 216.031C301.801 216.031 297.297 221.068 297.297 227.282C297.297 233.496 301.801 238.533 307.356 238.533Z" fill="#FBBEBE"/>
<path d="M298.272 236.572C297.674 238.364 296.659 240.047 295.182 241.011L309.096 244.185C308.591 241.914 308.524 239.548 308.9 237.246C309.039 236.689 309.067 236.105 308.984 235.534C308.722 234.405 307.586 233.862 306.569 233.603C304.03 232.955 301.784 232.608 299.424 231.354C298.703 232.735 298.804 234.98 298.272 236.572Z" fill="#FBBEBE"/>
<path d="M295.066 236.798C296.563 236.041 298.193 235.672 299.836 235.72C301.478 235.768 303.089 236.231 304.549 237.075C306.332 238.126 307.809 239.713 309.26 241.279C310.598 242.722 312.025 244.375 312.12 246.451C312.166 247.456 311.885 248.44 311.743 249.434C311.489 251.491 311.812 253.585 312.67 255.427C313.527 257.269 314.875 258.766 316.528 259.713C317.633 261.772 317.861 264.267 317.878 266.669C317.942 275.769 315.375 284.982 317.208 293.848C317.638 295.93 318.306 297.946 318.677 300.042C319.159 302.757 319.135 305.548 319.387 308.301C319.66 311.283 320.256 314.216 321.162 317.036C320.557 318.113 319.296 318.526 318.162 318.439C317.027 318.352 315.966 317.801 314.953 317.222C310.05 314.415 305.558 310.715 300.48 308.33C297.12 306.752 293.54 305.769 290.281 303.946C287.021 302.124 283.99 299.232 282.993 295.311C282.562 293.616 282.536 291.83 282.512 290.068C282.413 282.646 282.321 275.143 283.766 267.898C285.039 261.509 287.495 255.397 288.031 248.879C288.205 246.757 288.209 244.486 289.269 242.715C290.767 240.213 294.002 239.565 295.066 236.798Z" fill="#2F2E41"/>
<path d="M301.635 227.441C302.228 226.576 303.371 226.458 304.318 226.714C305.265 226.97 306.138 227.516 307.095 227.723C307.312 227.792 307.54 227.81 307.764 227.774C307.988 227.739 308.202 227.652 308.394 227.519C308.729 227.151 308.929 226.657 308.955 226.133C309.29 223.903 309.368 221.635 309.188 219.384C309.138 219.068 309.157 218.743 309.243 218.437C309.48 217.799 310.202 217.647 310.792 217.442C311.766 217.074 312.602 216.354 313.169 215.396C313.735 214.437 314 213.294 313.922 212.149C313.907 211.599 313.7 211.078 313.346 210.696C312.938 210.324 312.367 210.301 311.841 210.297C309.137 210.272 306.433 210.273 303.728 210.299C302.727 210.308 301.676 210.336 300.809 210.894C300.167 211.307 299.69 211.971 299.114 212.491C297.612 213.846 295.581 214.122 293.753 214.817C292.861 215.101 292.051 215.641 291.404 216.384C290.796 217.16 290.504 218.315 290.885 219.254C291.081 219.646 291.3 220.023 291.541 220.382C292.618 222.31 291.901 224.81 292.062 227.076C292.263 229.906 296.008 234.497 298.547 235.167C302.646 236.248 300.278 229.299 301.635 227.441Z" fill="#2F2E41"/>
<path d="M295.956 351.525C296.215 353.591 296.546 355.665 296.458 357.749C296.334 360.659 295.396 363.462 295.222 366.369C295.093 368.54 295.392 370.734 295.123 372.889C294.95 374.269 294.548 375.599 294.299 376.964C293.904 379.188 293.915 381.479 294.331 383.699C294.747 385.918 295.56 388.021 296.72 389.881C296.89 390.199 297.132 390.462 297.422 390.643C297.7 390.758 297.998 390.802 298.293 390.771C301.221 390.705 304.141 390.408 307.032 389.883C307.243 389.873 307.444 389.775 307.593 389.606C307.658 389.495 307.7 389.368 307.715 389.236C308.251 386.154 307.028 383.064 306.718 379.944C306.386 376.613 307.1 373.274 307.81 370.017C308.132 368.411 308.533 366.826 309.014 365.269C309.357 364.222 309.771 363.203 310.068 362.139C310.489 360.466 310.745 358.747 310.832 357.012C311.039 354.274 311.148 351.53 311.16 348.78C311.231 346.174 311.037 343.568 310.582 341.01C309.93 337.773 308.595 334.766 307.272 331.796C306.564 331.985 305.9 332.339 305.321 332.833C303.616 334.068 301.835 335.168 299.992 336.126C298.754 336.769 296.339 337.226 295.553 338.566C294.778 339.888 295.278 342.586 295.337 344.044C295.439 346.546 295.645 349.04 295.956 351.525Z" fill="#2F2E41"/>
<path opacity="0.1" d="M295.956 351.525C296.215 353.591 296.546 355.665 296.458 357.749C296.334 360.659 295.396 363.462 295.222 366.369C295.093 368.54 295.392 370.734 295.123 372.889C294.95 374.269 294.548 375.599 294.299 376.964C293.904 379.188 293.915 381.479 294.331 383.699C294.747 385.918 295.56 388.021 296.72 389.881C296.89 390.199 297.132 390.462 297.422 390.643C297.7 390.758 297.998 390.802 298.293 390.771C301.221 390.705 304.141 390.408 307.032 389.883C307.243 389.873 307.444 389.775 307.593 389.606C307.658 389.495 307.7 389.368 307.715 389.236C308.251 386.154 307.028 383.064 306.718 379.944C306.386 376.613 307.1 373.274 307.81 370.017C308.132 368.411 308.533 366.826 309.014 365.269C309.357 364.222 309.771 363.203 310.068 362.139C310.489 360.466 310.745 358.747 310.832 357.012C311.039 354.274 311.148 351.53 311.16 348.78C311.231 346.174 311.037 343.568 310.582 341.01C309.93 337.773 308.595 334.766 307.272 331.796C306.564 331.985 305.9 332.339 305.321 332.833C303.616 334.068 301.835 335.168 299.992 336.126C298.754 336.769 296.339 337.226 295.553 338.566C294.778 339.888 295.278 342.586 295.337 344.044C295.439 346.546 295.645 349.04 295.956 351.525Z" fill="black"/>
<path d="M282.355 307.388C281.02 311.411 282.983 315.758 284.689 319.601C288.892 329.07 291.811 339.175 294.714 349.236C294.932 349.989 295.149 350.811 294.906 351.555C294.697 352.084 294.357 352.535 293.927 352.855C291.925 354.555 289.376 355.161 286.992 356.051C284.687 356.911 282.48 358.068 280.415 359.499C278.687 360.696 277.069 362.079 275.453 363.459L270.311 367.851C269.978 368.103 269.687 368.418 269.451 368.782C268.955 369.652 269.158 370.788 269.405 371.783C270.059 374.416 270.901 376.986 271.923 379.468C272.091 380.012 272.411 380.481 272.836 380.806C273.639 381.289 274.621 380.649 275.233 379.895C275.846 379.141 276.377 378.202 277.241 377.879C278.104 377.555 279.053 377.947 279.955 377.805C281.413 377.577 282.38 376.075 283.431 374.922C287.724 370.211 294.892 370.553 299.614 366.388C300.297 365.705 301.02 365.073 301.778 364.498C302.576 363.97 303.481 363.68 304.31 363.214C306.829 361.795 308.413 358.861 309.262 355.853C310.11 352.844 310.352 349.668 310.962 346.588C311.277 344.995 311.692 343.42 311.832 341.796C311.922 340.287 311.893 338.771 311.744 337.266L310.04 313.69C309.901 311.771 309.762 309.849 309.493 307.947C304.432 308.149 299.375 308.377 294.311 308.444C290.282 308.497 286.179 308.812 282.355 307.388Z" fill="#2F2E41"/>
<path d="M280.495 312.903C281.182 314.138 282.853 314.113 284.003 313.436C285.154 312.759 286.048 311.621 287.201 310.95C288.751 310.048 290.585 310.082 292.331 310.137C295.096 310.225 297.895 310.318 300.555 311.165C303.306 312.041 305.985 313.729 308.83 313.392C309.325 313.334 309.866 313.175 310.135 312.707C310.293 312.368 310.368 311.988 310.351 311.606L310.444 308.826C310.501 308.345 310.432 307.856 310.246 307.418C310.007 307.054 309.68 306.773 309.303 306.611C305.253 304.418 300.635 304.01 296.139 303.838C293.854 303.75 291.567 303.714 289.28 303.73C287.339 303.743 285.008 303.429 283.121 304.009C280.588 304.787 279.21 310.592 280.495 312.903Z" fill="#2F2E41"/>
<path d="M305.922 240.098C300.616 240.046 295.808 236.129 290.503 236.033C289.862 235.984 289.22 236.108 288.631 236.395C287.891 236.811 287.405 237.616 286.844 238.297C285.275 240.196 283.003 241.211 281.392 243.065C279.881 244.804 279.04 247.395 279.637 249.726C280.233 252.057 282.485 253.845 284.594 253.285C285.444 250.208 287.198 247.543 289.572 245.721C290.807 244.835 292.109 244.071 293.462 243.437C295.847 242.229 298.513 240.997 301.002 241.903C301.92 242.291 302.786 242.819 303.575 243.472L307.725 246.59C307.241 244.457 306.807 242.064 305.922 240.098Z" fill="#FF4B12"/>
<path d="M283.983 251.222C283.279 252.205 284.294 253.63 284.138 254.878C284.035 255.707 283.425 256.34 283.171 257.127C282.908 257.943 283.047 258.846 282.948 259.706C282.847 260.331 282.699 260.946 282.505 261.542C282.058 263.325 281.746 265.147 281.572 266.989L280.643 274.745C280.482 275.913 280.384 277.09 280.35 278.27C280.397 279.153 280.344 280.038 280.193 280.906C279.987 281.753 279.532 282.495 279.225 283.304C278.919 284.112 278.777 285.091 279.191 285.837C277.805 287.128 277.393 289.663 278.362 291.364C278.547 291.63 278.691 291.927 278.789 292.244C278.843 292.688 278.777 293.139 278.601 293.541L277.662 296.34C277.422 297.056 277.346 298.146 278.014 298.31C277.46 298.953 277.029 299.715 276.746 300.549C276.609 300.968 276.568 301.419 276.627 301.86C276.686 302.302 276.843 302.719 277.084 303.075C277.317 303.304 277.516 303.574 277.672 303.874C277.764 304.292 277.74 304.731 277.604 305.133C277.464 305.744 277.437 306.381 277.525 307.004C277.613 307.628 277.814 308.224 278.116 308.757C278.428 309.283 278.871 309.696 279.39 309.945C279.91 310.193 280.482 310.268 281.038 310.158C282.917 309.685 284.605 308.937 286.499 309.325C290.577 310.162 294.668 311.003 298.618 312.413C303.126 314.023 307.49 316.383 312.202 316.879C312.512 316.95 312.834 316.894 313.11 316.721C313.35 316.466 313.5 316.123 313.53 315.755C314.016 313.209 314.501 310.664 314.986 308.119C315.573 305.297 316.02 302.442 316.325 299.565C316.491 297.709 316.538 295.842 316.585 293.977L316.96 279.132C317.136 276.944 316.875 274.739 316.197 272.678L314.038 264.971C312.806 260.573 309.98 256.672 308.974 252.203C308.337 249.374 307.867 246.338 306.159 244.134C303.724 240.99 299.512 240.501 295.825 241.042C294.16 241.286 292.48 241.707 291.039 242.673C289.373 243.79 288.146 245.55 286.959 247.269C285.98 248.686 284.984 249.825 283.983 251.222Z" fill="#839AFF"/>
<path d="M292.592 294.887C292.895 296.352 293.533 297.703 293.924 299.142C294.578 301.552 294.522 304.149 295.175 306.56C295.449 307.572 295.847 308.544 296.043 309.579C296.502 311.99 295.832 314.485 295 316.768C294.169 319.052 293.156 321.303 292.886 323.75C292.695 325.473 292.969 327.419 294.156 328.538C295.39 329.699 297.181 329.62 298.788 329.466C299.364 329.448 299.933 329.315 300.468 329.074C301.697 328.425 302.214 326.799 302.501 325.314C303.463 320.336 303.188 315.177 302.909 310.093L302.177 296.8C302.037 294.241 301.886 291.629 301.181 289.171C300.924 288.278 300.477 286.471 299.747 285.9C299.024 285.335 296.959 285.31 296.064 285.263C291.864 285.042 291.911 291.599 292.592 294.887Z" fill="#FBBEBE"/>
<path d="M297.245 245.805C296.388 245.303 295.307 245.52 294.478 246.079C293.677 246.692 292.976 247.453 292.404 248.33C290.551 250.861 288.588 253.765 288.863 257.021C288.966 258.242 289.384 259.398 289.668 260.583C290.911 265.778 289.536 271.273 289.694 276.648C289.785 279.754 290.389 282.809 290.991 285.843C291.114 286.462 291.311 287.179 291.846 287.387C292.249 287.544 292.683 287.343 293.081 287.173C294.565 286.56 296.158 286.356 297.727 286.577C299.296 286.798 300.794 287.439 302.095 288.444C303.09 287.85 302.717 285.973 302.494 284.737C301.832 281.065 302.731 277.276 303.823 273.735C304.916 270.193 306.223 266.656 306.404 262.915C306.609 258.676 305.352 254.539 304.112 250.527C303.842 249.651 303.546 248.733 302.919 248.128C302.381 247.681 301.766 247.366 301.112 247.205C299.795 246.769 298.462 246.518 297.245 245.805Z" fill="#2F2E41"/>
</g>
<defs>
<clipPath id="clip0">
<rect width="391" height="332" fill="white" transform="translate(223 81)"/>
</clipPath>
</defs>
</svg>
